<?xml version="1.0" encoding="UTF-8" standalone="no"?>
<!DOCTYPE svg PUBLIC "-//W3C//DTD SVG 1.1//EN" "http://www.w3.org/Graphics/SVG/1.1/DTD/svg11.dtd">
<svg width="100%" height="100%" viewBox="0 0 749 228" version="1.1" xmlns="http://www.w3.org/2000/svg" xmlns:xlink="http://www.w3.org/1999/xlink" xml:space="preserve" xmlns:serif="http://www.serif.com/" style="fill-rule:evenodd;clip-rule:evenodd;stroke-linejoin:round;stroke-miterlimit:2;">
    <g transform="matrix(1,0,0,1,-25.6563,-286.047)">
        <g transform="matrix(0.991852,0,0,0.952453,1.41787,19.2346)">
            <path d="M774.25,322.697C774.25,302.456 758.493,286.047 739.055,286.047C616.474,286.047 208.402,286.047 73.013,286.047C61.323,286.047 50.112,290.883 41.846,299.491C33.58,308.099 28.936,319.774 28.936,331.947C28.936,371.548 28.936,428.452 28.936,468.053C28.936,480.226 33.58,491.901 41.846,500.509C50.112,509.117 61.323,513.953 73.013,513.953C208.402,513.953 616.474,513.953 739.055,513.953C758.493,513.953 774.25,497.544 774.25,477.303C774.25,434.811 774.25,365.189 774.25,322.697Z" style="fill:white;"/>
        </g>
        <g>
            <clipPath id="_clip1">
                <path d="M230.292,286.047L774.344,286.047L774.344,296.026L230.292,296.026L230.292,286.047ZM764.156,296.026L774.344,296.026L774.344,503.76L764.156,503.76L764.156,296.026ZM230.292,296.026L240.271,296.026L240.271,503.76L230.292,503.76L230.292,296.026ZM230.292,503.76L774.344,503.76L774.344,513.953L230.292,513.953L230.292,503.76Z"/>
            </clipPath>
            <g clip-path="url(#_clip1)">
                <path d="M230.292,286.047L731.441,286.047C755.084,286.047 774.25,305.213 774.25,328.855L774.25,471.145C774.25,494.787 755.084,513.953 731.441,513.953L230.292,513.953L230.292,286.047Z" style="fill:rgb(34,72,40);fill-rule:nonzero;"/>
            </g>
        </g>
        <g transform="matrix(1.00116,0,0,0.952453,-5.788,19.2346)">
            <path d="M230.292,286.047L737.983,286.047C747.602,286.047 756.826,290.063 763.628,297.212C770.429,304.362 774.25,314.058 774.25,324.169L774.25,475.831C774.25,485.942 770.429,495.638 763.628,502.788C756.826,509.937 747.602,513.953 737.983,513.953L230.292,513.953L230.292,286.047Z" style="fill:rgb(34,72,32);fill-opacity:0;fill-rule:nonzero;stroke:rgb(34,72,40);stroke-width:9.7px;"/>
        </g>
        <g transform="matrix(1,0,0,1,250.395,419.079)">
            <g>
                <g>
                    <path d="M28.438,0.813C23.589,0.813 19.198,-0.24 15.271,-2.354C11.354,-4.464 8.271,-7.385 6.021,-11.125C3.771,-14.859 2.646,-19.089 2.646,-23.812C2.646,-28.531 3.771,-32.76 6.021,-36.5C8.271,-40.25 11.354,-43.172 15.271,-45.271C19.198,-47.38 23.609,-48.437 28.5,-48.437C32.635,-48.437 36.375,-47.708 39.708,-46.25C43.042,-44.802 45.839,-42.719 48.104,-40L41.021,-33.479C37.813,-37.198 33.823,-39.062 29.063,-39.062C26.104,-39.062 23.464,-38.417 21.146,-37.125C18.839,-35.833 17.042,-34.026 15.75,-31.708C14.458,-29.385 13.813,-26.755 13.813,-23.812C13.813,-20.865 14.458,-18.234 15.75,-15.917C17.042,-13.609 18.839,-11.812 21.146,-10.521C23.464,-9.229 26.104,-8.583 29.063,-8.583C33.823,-8.583 37.813,-10.464 41.021,-14.229L48.104,-7.687C45.839,-4.922 43.026,-2.812 39.667,-1.354C36.302,0.089 32.563,0.813 28.438,0.813Z" style="fill:rgb(34,72,32);fill-rule:nonzero;"/>
                </g>
            </g>
        </g>
        <g transform="matrix(1,0,0,1,318.224,419.079)">
            <g>
                <g>
                    <path d="M37.021,-10.208L14.896,-10.208L10.688,0L-0.604,0L20.625,-47.625L31.5,-47.625L52.792,0L41.229,0L37.021,-10.208ZM33.542,-18.583L26,-36.812L18.438,-18.583L33.542,-18.583Z" style="fill:rgb(34,72,32);fill-rule:nonzero;"/>
                </g>
            </g>
        </g>
        <g transform="matrix(1,0,0,1,388.297,419.079)">
            <g>
                <g>
                    <path d="M36,0L26.813,-13.271L16.667,-13.271L16.667,0L5.646,0L5.646,-47.625L26.271,-47.625C30.479,-47.625 34.135,-46.922 37.25,-45.521C40.359,-44.115 42.755,-42.115 44.438,-39.521C46.115,-36.937 46.958,-33.88 46.958,-30.354C46.958,-26.812 46.104,-23.755 44.396,-21.187C42.698,-18.63 40.281,-16.672 37.146,-15.312L47.833,0L36,0ZM35.792,-30.354C35.792,-33.021 34.927,-35.068 33.208,-36.5C31.484,-37.927 28.964,-38.646 25.646,-38.646L16.667,-38.646L16.667,-22.042L25.646,-22.042C28.964,-22.042 31.484,-22.76 33.208,-24.208C34.927,-25.667 35.792,-27.714 35.792,-30.354Z" style="fill:rgb(34,72,32);fill-rule:nonzero;"/>
                </g>
            </g>
        </g>
        <g transform="matrix(1,0,0,1,456.261,419.079)">
            <g>
                <g>
                    <path d="M40.625,-24.771C43.344,-23.906 45.479,-22.464 47.021,-20.437C48.563,-18.422 49.333,-15.943 49.333,-13C49.333,-8.818 47.708,-5.604 44.458,-3.354C41.219,-1.115 36.49,0 30.271,0L5.646,0L5.646,-47.625L28.917,-47.625C34.719,-47.625 39.177,-46.51 42.292,-44.292C45.401,-42.068 46.958,-39.052 46.958,-35.25C46.958,-32.927 46.401,-30.859 45.292,-29.042C44.177,-27.234 42.625,-25.812 40.625,-24.771ZM16.604,-39.333L16.604,-28.104L27.563,-28.104C30.281,-28.104 32.344,-28.573 33.75,-29.521C35.151,-30.479 35.854,-31.885 35.854,-33.75C35.854,-35.609 35.151,-37.005 33.75,-37.937C32.344,-38.865 30.281,-39.333 27.563,-39.333L16.604,-39.333ZM29.458,-8.292C32.359,-8.292 34.547,-8.771 36.021,-9.729C37.49,-10.687 38.229,-12.156 38.229,-14.146C38.229,-18.089 35.302,-20.062 29.458,-20.062L16.604,-20.062L16.604,-8.292L29.458,-8.292Z" style="fill:rgb(34,72,32);fill-rule:nonzero;"/>
                </g>
            </g>
        </g>
        <g transform="matrix(1,0,0,1,526.266,419.079)">
            <g>
                <g>
                    <path d="M42.521,-8.854L42.521,0L5.646,0L5.646,-47.625L41.646,-47.625L41.646,-38.792L16.604,-38.792L16.604,-28.437L38.708,-28.437L38.708,-19.875L16.604,-19.875L16.604,-8.854L42.521,-8.854Z" style="fill:rgb(34,72,32);fill-rule:nonzero;"/>
                </g>
            </g>
        </g>
        <g transform="matrix(1,0,0,1,589.877,419.079)">
            <g>
                <g>
                    <path d="M5.646,-47.625L16.667,-47.625L16.667,-8.979L40.563,-8.979L40.563,0L5.646,0L5.646,-47.625Z" style="fill:rgb(34,72,32);fill-rule:nonzero;"/>
                </g>
            </g>
        </g>
        <g transform="matrix(1,0,0,1,648.929,419.079)">
            <g>
                <g>
                    <rect x="5.646" y="-47.625" width="11.021" height="47.625" style="fill:rgb(34,72,32);fill-rule:nonzero;"/>
                </g>
            </g>
        </g>
        <g transform="matrix(1,0,0,1,689.204,419.079)">
            <g>
                <g>
                    <path d="M49,0L48.917,-28.583L34.896,-5.042L29.938,-5.042L16,-27.958L16,0L5.646,0L5.646,-47.625L14.771,-47.625L32.583,-18.021L50.146,-47.625L59.188,-47.625L59.333,0L49,0Z" style="fill:rgb(34,72,32);fill-rule:nonzero;"/>
                </g>
            </g>
        </g>
        <g transform="matrix(1,0,0,1,275.241,473.124)">
            <g>
                <g>
                    <path d="M16.521,-10.958C16.521,-9.469 16.115,-8.198 15.313,-7.146C14.505,-6.089 13.396,-5.339 11.979,-4.896L14.75,0L10.875,0L8.375,-4.437L5.25,-4.437L4.354,0L0.667,0L3.833,-15.875L10.292,-15.875C12.26,-15.875 13.792,-15.443 14.875,-14.583C15.969,-13.719 16.521,-12.51 16.521,-10.958ZM8.938,-7.375C10.156,-7.375 11.104,-7.651 11.771,-8.208C12.448,-8.776 12.792,-9.583 12.792,-10.625C12.792,-11.375 12.531,-11.937 12.021,-12.312C11.505,-12.698 10.776,-12.896 9.833,-12.896L6.917,-12.896L5.813,-7.375L8.938,-7.375Z" style="fill:rgb(34,72,40);fill-rule:nonzero;"/>
                </g>
            </g>
        </g>
        <g transform="matrix(1,0,0,1,295.288,473.124)">
            <g>
                <g>
                    <path d="M13.688,-7.021C13.688,-6.448 13.615,-5.823 13.479,-5.146L4.125,-5.146C4.25,-3.479 5.302,-2.646 7.292,-2.646C7.901,-2.646 8.49,-2.74 9.063,-2.937C9.63,-3.146 10.125,-3.427 10.542,-3.792L12.021,-1.458C11.339,-0.901 10.563,-0.484 9.688,-0.208C8.813,0.052 7.885,0.188 6.917,0.188C5.667,0.188 4.568,-0.031 3.625,-0.479C2.677,-0.937 1.948,-1.573 1.438,-2.396C0.938,-3.229 0.688,-4.193 0.688,-5.292C0.688,-6.635 0.99,-7.844 1.604,-8.917C2.214,-10 3.063,-10.844 4.146,-11.458C5.24,-12.083 6.484,-12.396 7.875,-12.396C9.052,-12.396 10.073,-12.172 10.938,-11.729C11.813,-11.281 12.484,-10.651 12.958,-9.833C13.443,-9.026 13.688,-8.089 13.688,-7.021ZM7.708,-9.729C6.875,-9.729 6.172,-9.505 5.604,-9.062C5.031,-8.615 4.625,-8 4.375,-7.208L10.438,-7.208C10.438,-8 10.188,-8.615 9.688,-9.062C9.198,-9.505 8.542,-9.729 7.708,-9.729Z" style="fill:rgb(34,72,40);fill-rule:nonzero;"/>
                </g>
            </g>
        </g>
        <g transform="matrix(1,0,0,1,312.909,473.124)">
            <g>
                <g>
                    <path d="M16.208,-16.833L12.833,0L9.479,0L9.729,-1.229C8.698,-0.281 7.448,0.188 5.979,0.188C5.031,0.188 4.156,-0.026 3.354,-0.458C2.547,-0.901 1.906,-1.531 1.438,-2.354C0.964,-3.187 0.729,-4.167 0.729,-5.292C0.729,-6.635 1.026,-7.844 1.625,-8.917C2.219,-10 3.031,-10.844 4.063,-11.458C5.089,-12.083 6.219,-12.396 7.458,-12.396C8.359,-12.396 9.146,-12.24 9.813,-11.937C10.479,-11.63 11.01,-11.187 11.417,-10.604L12.667,-16.833L16.208,-16.833ZM7.083,-2.75C7.776,-2.75 8.396,-2.917 8.938,-3.25C9.479,-3.594 9.901,-4.068 10.208,-4.667C10.51,-5.276 10.667,-5.979 10.667,-6.771C10.667,-7.589 10.417,-8.24 9.917,-8.729C9.427,-9.214 8.75,-9.458 7.875,-9.458C7.177,-9.458 6.552,-9.281 6,-8.937C5.458,-8.604 5.031,-8.13 4.729,-7.521C4.438,-6.922 4.292,-6.229 4.292,-5.437C4.292,-4.604 4.531,-3.943 5.021,-3.458C5.521,-2.984 6.208,-2.75 7.083,-2.75Z" style="fill:rgb(34,72,40);fill-rule:nonzero;"/>
                </g>
            </g>
        </g>
        <g transform="matrix(1,0,0,1,331.981,473.124)">
            <g>
                <g>
                    <path d="M13.688,-7.021C13.688,-6.448 13.615,-5.823 13.479,-5.146L4.125,-5.146C4.25,-3.479 5.302,-2.646 7.292,-2.646C7.901,-2.646 8.49,-2.74 9.063,-2.937C9.63,-3.146 10.125,-3.427 10.542,-3.792L12.021,-1.458C11.339,-0.901 10.563,-0.484 9.688,-0.208C8.813,0.052 7.885,0.188 6.917,0.188C5.667,0.188 4.568,-0.031 3.625,-0.479C2.677,-0.937 1.948,-1.573 1.438,-2.396C0.938,-3.229 0.688,-4.193 0.688,-5.292C0.688,-6.635 0.99,-7.844 1.604,-8.917C2.214,-10 3.063,-10.844 4.146,-11.458C5.24,-12.083 6.484,-12.396 7.875,-12.396C9.052,-12.396 10.073,-12.172 10.938,-11.729C11.813,-11.281 12.484,-10.651 12.958,-9.833C13.443,-9.026 13.688,-8.089 13.688,-7.021ZM7.708,-9.729C6.875,-9.729 6.172,-9.505 5.604,-9.062C5.031,-8.615 4.625,-8 4.375,-7.208L10.438,-7.208C10.438,-8 10.188,-8.615 9.688,-9.062C9.198,-9.505 8.542,-9.729 7.708,-9.729Z" style="fill:rgb(34,72,40);fill-rule:nonzero;"/>
                </g>
            </g>
        </g>
        <g transform="matrix(1,0,0,1,349.601,473.124)">
            <g>
                <g>
                    <path d="M8.708,-14.229C8.167,-14.229 7.734,-14.073 7.417,-13.771C7.109,-13.479 6.901,-13.021 6.792,-12.396L6.688,-11.937L9.792,-11.937L9.25,-9.208L6.229,-9.208L4.396,0L0.854,0L2.708,-9.208L0.792,-9.208L1.333,-11.937L3.25,-11.937L3.375,-12.646C3.667,-14.005 4.26,-15.073 5.167,-15.854C6.068,-16.63 7.24,-17.021 8.688,-17.021C9.229,-17.021 9.74,-16.958 10.229,-16.833C10.729,-16.708 11.151,-16.542 11.5,-16.333L10.125,-13.792C9.734,-14.083 9.26,-14.229 8.708,-14.229Z" style="fill:rgb(34,72,40);fill-rule:nonzero;"/>
                </g>
            </g>
        </g>
        <g transform="matrix(1,0,0,1,361.756,473.124)">
            <g>
                <g>
                    <path d="M2.854,-12.208L6.375,-12.208L3.938,0L0.438,0L2.854,-12.208ZM5.208,-13.917C4.609,-13.917 4.115,-14.089 3.729,-14.437C3.339,-14.797 3.146,-15.234 3.146,-15.75C3.146,-16.344 3.359,-16.844 3.792,-17.25C4.219,-17.651 4.781,-17.854 5.479,-17.854C6.104,-17.854 6.609,-17.677 7,-17.333C7.385,-17 7.583,-16.583 7.583,-16.083C7.583,-15.427 7.359,-14.901 6.917,-14.5C6.484,-14.109 5.917,-13.917 5.208,-13.917Z" style="fill:rgb(34,72,40);fill-rule:nonzero;"/>
                </g>
            </g>
        </g>
        <g transform="matrix(1,0,0,1,371.939,473.124)">
            <g>
                <g>
                    <path d="M9.958,-12.396C11.318,-12.396 12.401,-12.031 13.208,-11.312C14.01,-10.589 14.417,-9.562 14.417,-8.229C14.417,-7.729 14.359,-7.24 14.25,-6.771L12.896,0L9.354,0L10.667,-6.542C10.719,-6.792 10.75,-7.068 10.75,-7.375C10.75,-8.01 10.573,-8.5 10.229,-8.833C9.88,-9.167 9.359,-9.333 8.667,-9.333C7.76,-9.333 7.01,-9.068 6.417,-8.542C5.818,-8.01 5.406,-7.229 5.188,-6.187L3.979,0L0.438,0L2.854,-12.208L6.208,-12.208L5.938,-10.896C7.031,-11.896 8.375,-12.396 9.958,-12.396Z" style="fill:rgb(34,72,40);fill-rule:nonzero;"/>
                </g>
            </g>
        </g>
        <g transform="matrix(1,0,0,1,390.988,473.124)">
            <g>
                <g>
                    <path d="M2.854,-12.208L6.375,-12.208L3.938,0L0.438,0L2.854,-12.208ZM5.208,-13.917C4.609,-13.917 4.115,-14.089 3.729,-14.437C3.339,-14.797 3.146,-15.234 3.146,-15.75C3.146,-16.344 3.359,-16.844 3.792,-17.25C4.219,-17.651 4.781,-17.854 5.479,-17.854C6.104,-17.854 6.609,-17.677 7,-17.333C7.385,-17 7.583,-16.583 7.583,-16.083C7.583,-15.427 7.359,-14.901 6.917,-14.5C6.484,-14.109 5.917,-13.917 5.208,-13.917Z" style="fill:rgb(34,72,40);fill-rule:nonzero;"/>
                </g>
            </g>
        </g>
        <g transform="matrix(1,0,0,1,401.17,473.124)">
            <g>
                <g>
                    <path d="M9.958,-12.396C11.318,-12.396 12.401,-12.031 13.208,-11.312C14.01,-10.589 14.417,-9.562 14.417,-8.229C14.417,-7.729 14.359,-7.24 14.25,-6.771L12.896,0L9.354,0L10.667,-6.542C10.719,-6.792 10.75,-7.068 10.75,-7.375C10.75,-8.01 10.573,-8.5 10.229,-8.833C9.88,-9.167 9.359,-9.333 8.667,-9.333C7.76,-9.333 7.01,-9.068 6.417,-8.542C5.818,-8.01 5.406,-7.229 5.188,-6.187L3.979,0L0.438,0L2.854,-12.208L6.208,-12.208L5.938,-10.896C7.031,-11.896 8.375,-12.396 9.958,-12.396Z" style="fill:rgb(34,72,40);fill-rule:nonzero;"/>
                </g>
            </g>
        </g>
        <g transform="matrix(1,0,0,1,420.219,473.124)">
            <g>
                <g>
                    <path d="M15.458,-12.208L13.438,-2.042C12.979,0.26 12.104,1.943 10.813,3C9.521,4.052 7.792,4.583 5.625,4.583C4.443,4.583 3.354,4.443 2.354,4.167C1.365,3.901 0.521,3.505 -0.188,2.979L1.5,0.417C1.984,0.818 2.609,1.135 3.375,1.375C4.135,1.609 4.943,1.729 5.792,1.729C6.984,1.729 7.885,1.464 8.5,0.938C9.125,0.422 9.547,-0.365 9.771,-1.437L9.875,-1.958C8.885,-1.042 7.646,-0.583 6.146,-0.583C5.13,-0.583 4.214,-0.792 3.396,-1.208C2.589,-1.625 1.943,-2.214 1.458,-2.979C0.984,-3.755 0.75,-4.667 0.75,-5.708C0.75,-6.958 1.042,-8.089 1.625,-9.104C2.219,-10.115 3.031,-10.917 4.063,-11.5C5.104,-12.094 6.271,-12.396 7.563,-12.396C8.505,-12.396 9.339,-12.214 10.063,-11.854C10.781,-11.49 11.323,-10.943 11.688,-10.208L12.063,-12.208L15.458,-12.208ZM7.104,-3.5C8.13,-3.5 8.979,-3.833 9.646,-4.5C10.313,-5.167 10.646,-6.021 10.646,-7.062C10.646,-7.797 10.401,-8.38 9.917,-8.812C9.427,-9.24 8.755,-9.458 7.896,-9.458C6.854,-9.458 5.99,-9.125 5.313,-8.458C4.646,-7.792 4.313,-6.937 4.313,-5.896C4.313,-5.156 4.563,-4.573 5.063,-4.146C5.563,-3.714 6.24,-3.5 7.104,-3.5Z" style="fill:rgb(34,72,40);fill-rule:nonzero;"/>
                </g>
            </g>
        </g>
        <g transform="matrix(1,0,0,1,449.269,473.124)">
            <g>
                <g>
                    <path d="M13.042,-8.187L16.396,-8.187L15.083,-1.646C14.276,-1.031 13.344,-0.562 12.292,-0.229C11.234,0.104 10.135,0.271 9,0.271C7.417,0.271 6.031,-0.01 4.854,-0.583C3.672,-1.167 2.76,-1.979 2.125,-3.021C1.484,-4.062 1.167,-5.26 1.167,-6.625C1.167,-8.427 1.573,-10.052 2.396,-11.5C3.229,-12.958 4.401,-14.094 5.917,-14.917C7.427,-15.734 9.172,-16.146 11.146,-16.146C12.656,-16.146 13.969,-15.906 15.083,-15.437C16.193,-14.979 17.089,-14.297 17.771,-13.396L15.125,-11.25C14.594,-11.875 14,-12.323 13.333,-12.604C12.667,-12.88 11.88,-13.021 10.979,-13.021C9.771,-13.021 8.698,-12.75 7.771,-12.208C6.854,-11.677 6.135,-10.943 5.625,-10C5.125,-9.068 4.875,-8.021 4.875,-6.854C4.875,-5.63 5.271,-4.656 6.063,-3.937C6.854,-3.214 7.99,-2.854 9.479,-2.854C10.422,-2.854 11.302,-3.042 12.125,-3.417L13.042,-8.187Z" style="fill:rgb(34,72,40);fill-rule:nonzero;"/>
                </g>
            </g>
        </g>
        <g transform="matrix(1,0,0,1,470.132,473.124)">
            <g>
                <g>
                    <path d="M5.917,-10.75C6.443,-11.333 7.083,-11.75 7.833,-12C8.583,-12.26 9.464,-12.396 10.479,-12.396L9.854,-9.125C9.422,-9.151 9.146,-9.167 9.021,-9.167C7.948,-9.167 7.094,-8.901 6.458,-8.375C5.818,-7.844 5.38,-7.021 5.146,-5.896L3.979,0L0.438,0L2.854,-12.208L6.208,-12.208L5.917,-10.75Z" style="fill:rgb(34,72,40);fill-rule:nonzero;"/>
                </g>
            </g>
        </g>
        <g transform="matrix(1,0,0,1,483.285,473.124)">
            <g>
                <g>
                    <path d="M13.688,-7.021C13.688,-6.448 13.615,-5.823 13.479,-5.146L4.125,-5.146C4.25,-3.479 5.302,-2.646 7.292,-2.646C7.901,-2.646 8.49,-2.74 9.063,-2.937C9.63,-3.146 10.125,-3.427 10.542,-3.792L12.021,-1.458C11.339,-0.901 10.563,-0.484 9.688,-0.208C8.813,0.052 7.885,0.188 6.917,0.188C5.667,0.188 4.568,-0.031 3.625,-0.479C2.677,-0.937 1.948,-1.573 1.438,-2.396C0.938,-3.229 0.688,-4.193 0.688,-5.292C0.688,-6.635 0.99,-7.844 1.604,-8.917C2.214,-10 3.063,-10.844 4.146,-11.458C5.24,-12.083 6.484,-12.396 7.875,-12.396C9.052,-12.396 10.073,-12.172 10.938,-11.729C11.813,-11.281 12.484,-10.651 12.958,-9.833C13.443,-9.026 13.688,-8.089 13.688,-7.021ZM7.708,-9.729C6.875,-9.729 6.172,-9.505 5.604,-9.062C5.031,-8.615 4.625,-8 4.375,-7.208L10.438,-7.208C10.438,-8 10.188,-8.615 9.688,-9.062C9.198,-9.505 8.542,-9.729 7.708,-9.729Z" style="fill:rgb(34,72,40);fill-rule:nonzero;"/>
                </g>
            </g>
        </g>
        <g transform="matrix(1,0,0,1,500.906,473.124)">
            <g>
                <g>
                    <path d="M13.688,-7.021C13.688,-6.448 13.615,-5.823 13.479,-5.146L4.125,-5.146C4.25,-3.479 5.302,-2.646 7.292,-2.646C7.901,-2.646 8.49,-2.74 9.063,-2.937C9.63,-3.146 10.125,-3.427 10.542,-3.792L12.021,-1.458C11.339,-0.901 10.563,-0.484 9.688,-0.208C8.813,0.052 7.885,0.188 6.917,0.188C5.667,0.188 4.568,-0.031 3.625,-0.479C2.677,-0.937 1.948,-1.573 1.438,-2.396C0.938,-3.229 0.688,-4.193 0.688,-5.292C0.688,-6.635 0.99,-7.844 1.604,-8.917C2.214,-10 3.063,-10.844 4.146,-11.458C5.24,-12.083 6.484,-12.396 7.875,-12.396C9.052,-12.396 10.073,-12.172 10.938,-11.729C11.813,-11.281 12.484,-10.651 12.958,-9.833C13.443,-9.026 13.688,-8.089 13.688,-7.021ZM7.708,-9.729C6.875,-9.729 6.172,-9.505 5.604,-9.062C5.031,-8.615 4.625,-8 4.375,-7.208L10.438,-7.208C10.438,-8 10.188,-8.615 9.688,-9.062C9.198,-9.505 8.542,-9.729 7.708,-9.729Z" style="fill:rgb(34,72,40);fill-rule:nonzero;"/>
                </g>
            </g>
        </g>
        <g transform="matrix(1,0,0,1,518.526,473.124)">
            <g>
                <g>
                    <path d="M9.958,-12.396C11.318,-12.396 12.401,-12.031 13.208,-11.312C14.01,-10.589 14.417,-9.562 14.417,-8.229C14.417,-7.729 14.359,-7.24 14.25,-6.771L12.896,0L9.354,0L10.667,-6.542C10.719,-6.792 10.75,-7.068 10.75,-7.375C10.75,-8.01 10.573,-8.5 10.229,-8.833C9.88,-9.167 9.359,-9.333 8.667,-9.333C7.76,-9.333 7.01,-9.068 6.417,-8.542C5.818,-8.01 5.406,-7.229 5.188,-6.187L3.979,0L0.438,0L2.854,-12.208L6.208,-12.208L5.938,-10.896C7.031,-11.896 8.375,-12.396 9.958,-12.396Z" style="fill:rgb(34,72,40);fill-rule:nonzero;"/>
                </g>
            </g>
        </g>
        <g transform="matrix(1,0,0,1,547.372,473.124)">
            <g>
                <g>
                    <path d="M6.896,-12.937L6.208,-9.479L13.583,-9.479L13.021,-6.625L5.625,-6.625L4.896,-2.958L13.563,-2.958L12.958,0L0.667,0L3.833,-15.875L15.833,-15.875L15.229,-12.937L6.896,-12.937Z" style="fill:rgb(34,72,40);fill-rule:nonzero;"/>
                </g>
            </g>
        </g>
        <g transform="matrix(1,0,0,1,565.968,473.124)">
            <g>
                <g>
                    <path d="M9.958,-12.396C11.318,-12.396 12.401,-12.031 13.208,-11.312C14.01,-10.589 14.417,-9.562 14.417,-8.229C14.417,-7.729 14.359,-7.24 14.25,-6.771L12.896,0L9.354,0L10.667,-6.542C10.719,-6.792 10.75,-7.068 10.75,-7.375C10.75,-8.01 10.573,-8.5 10.229,-8.833C9.88,-9.167 9.359,-9.333 8.667,-9.333C7.76,-9.333 7.01,-9.068 6.417,-8.542C5.818,-8.01 5.406,-7.229 5.188,-6.187L3.979,0L0.438,0L2.854,-12.208L6.208,-12.208L5.938,-10.896C7.031,-11.896 8.375,-12.396 9.958,-12.396Z" style="fill:rgb(34,72,40);fill-rule:nonzero;"/>
                </g>
            </g>
        </g>
        <g transform="matrix(1,0,0,1,585.017,473.124)">
            <g>
                <g>
                    <path d="M15.458,-12.208L13.438,-2.042C12.979,0.26 12.104,1.943 10.813,3C9.521,4.052 7.792,4.583 5.625,4.583C4.443,4.583 3.354,4.443 2.354,4.167C1.365,3.901 0.521,3.505 -0.188,2.979L1.5,0.417C1.984,0.818 2.609,1.135 3.375,1.375C4.135,1.609 4.943,1.729 5.792,1.729C6.984,1.729 7.885,1.464 8.5,0.938C9.125,0.422 9.547,-0.365 9.771,-1.437L9.875,-1.958C8.885,-1.042 7.646,-0.583 6.146,-0.583C5.13,-0.583 4.214,-0.792 3.396,-1.208C2.589,-1.625 1.943,-2.214 1.458,-2.979C0.984,-3.755 0.75,-4.667 0.75,-5.708C0.75,-6.958 1.042,-8.089 1.625,-9.104C2.219,-10.115 3.031,-10.917 4.063,-11.5C5.104,-12.094 6.271,-12.396 7.563,-12.396C8.505,-12.396 9.339,-12.214 10.063,-11.854C10.781,-11.49 11.323,-10.943 11.688,-10.208L12.063,-12.208L15.458,-12.208ZM7.104,-3.5C8.13,-3.5 8.979,-3.833 9.646,-4.5C10.313,-5.167 10.646,-6.021 10.646,-7.062C10.646,-7.797 10.401,-8.38 9.917,-8.812C9.427,-9.24 8.755,-9.458 7.896,-9.458C6.854,-9.458 5.99,-9.125 5.313,-8.458C4.646,-7.792 4.313,-6.937 4.313,-5.896C4.313,-5.156 4.563,-4.573 5.063,-4.146C5.563,-3.714 6.24,-3.5 7.104,-3.5Z" style="fill:rgb(34,72,40);fill-rule:nonzero;"/>
                </g>
            </g>
        </g>
        <g transform="matrix(1,0,0,1,604.27,473.124)">
            <g>
                <g>
                    <path d="M2.854,-12.208L6.375,-12.208L3.938,0L0.438,0L2.854,-12.208ZM5.208,-13.917C4.609,-13.917 4.115,-14.089 3.729,-14.437C3.339,-14.797 3.146,-15.234 3.146,-15.75C3.146,-16.344 3.359,-16.844 3.792,-17.25C4.219,-17.651 4.781,-17.854 5.479,-17.854C6.104,-17.854 6.609,-17.677 7,-17.333C7.385,-17 7.583,-16.583 7.583,-16.083C7.583,-15.427 7.359,-14.901 6.917,-14.5C6.484,-14.109 5.917,-13.917 5.208,-13.917Z" style="fill:rgb(34,72,40);fill-rule:nonzero;"/>
                </g>
            </g>
        </g>
        <g transform="matrix(1,0,0,1,614.452,473.124)">
            <g>
                <g>
                    <path d="M9.958,-12.396C11.318,-12.396 12.401,-12.031 13.208,-11.312C14.01,-10.589 14.417,-9.562 14.417,-8.229C14.417,-7.729 14.359,-7.24 14.25,-6.771L12.896,0L9.354,0L10.667,-6.542C10.719,-6.792 10.75,-7.068 10.75,-7.375C10.75,-8.01 10.573,-8.5 10.229,-8.833C9.88,-9.167 9.359,-9.333 8.667,-9.333C7.76,-9.333 7.01,-9.068 6.417,-8.542C5.818,-8.01 5.406,-7.229 5.188,-6.187L3.979,0L0.438,0L2.854,-12.208L6.208,-12.208L5.938,-10.896C7.031,-11.896 8.375,-12.396 9.958,-12.396Z" style="fill:rgb(34,72,40);fill-rule:nonzero;"/>
                </g>
            </g>
        </g>
        <g transform="matrix(1,0,0,1,633.502,473.124)">
            <g>
                <g>
                    <path d="M13.688,-7.021C13.688,-6.448 13.615,-5.823 13.479,-5.146L4.125,-5.146C4.25,-3.479 5.302,-2.646 7.292,-2.646C7.901,-2.646 8.49,-2.74 9.063,-2.937C9.63,-3.146 10.125,-3.427 10.542,-3.792L12.021,-1.458C11.339,-0.901 10.563,-0.484 9.688,-0.208C8.813,0.052 7.885,0.188 6.917,0.188C5.667,0.188 4.568,-0.031 3.625,-0.479C2.677,-0.937 1.948,-1.573 1.438,-2.396C0.938,-3.229 0.688,-4.193 0.688,-5.292C0.688,-6.635 0.99,-7.844 1.604,-8.917C2.214,-10 3.063,-10.844 4.146,-11.458C5.24,-12.083 6.484,-12.396 7.875,-12.396C9.052,-12.396 10.073,-12.172 10.938,-11.729C11.813,-11.281 12.484,-10.651 12.958,-9.833C13.443,-9.026 13.688,-8.089 13.688,-7.021ZM7.708,-9.729C6.875,-9.729 6.172,-9.505 5.604,-9.062C5.031,-8.615 4.625,-8 4.375,-7.208L10.438,-7.208C10.438,-8 10.188,-8.615 9.688,-9.062C9.198,-9.505 8.542,-9.729 7.708,-9.729Z" style="fill:rgb(34,72,40);fill-rule:nonzero;"/>
                </g>
            </g>
        </g>
        <g transform="matrix(1,0,0,1,651.122,473.124)">
            <g>
                <g>
                    <path d="M13.688,-7.021C13.688,-6.448 13.615,-5.823 13.479,-5.146L4.125,-5.146C4.25,-3.479 5.302,-2.646 7.292,-2.646C7.901,-2.646 8.49,-2.74 9.063,-2.937C9.63,-3.146 10.125,-3.427 10.542,-3.792L12.021,-1.458C11.339,-0.901 10.563,-0.484 9.688,-0.208C8.813,0.052 7.885,0.188 6.917,0.188C5.667,0.188 4.568,-0.031 3.625,-0.479C2.677,-0.937 1.948,-1.573 1.438,-2.396C0.938,-3.229 0.688,-4.193 0.688,-5.292C0.688,-6.635 0.99,-7.844 1.604,-8.917C2.214,-10 3.063,-10.844 4.146,-11.458C5.24,-12.083 6.484,-12.396 7.875,-12.396C9.052,-12.396 10.073,-12.172 10.938,-11.729C11.813,-11.281 12.484,-10.651 12.958,-9.833C13.443,-9.026 13.688,-8.089 13.688,-7.021ZM7.708,-9.729C6.875,-9.729 6.172,-9.505 5.604,-9.062C5.031,-8.615 4.625,-8 4.375,-7.208L10.438,-7.208C10.438,-8 10.188,-8.615 9.688,-9.062C9.198,-9.505 8.542,-9.729 7.708,-9.729Z" style="fill:rgb(34,72,40);fill-rule:nonzero;"/>
                </g>
            </g>
        </g>
        <g transform="matrix(1,0,0,1,668.743,473.124)">
            <g>
                <g>
                    <path d="M5.917,-10.75C6.443,-11.333 7.083,-11.75 7.833,-12C8.583,-12.26 9.464,-12.396 10.479,-12.396L9.854,-9.125C9.422,-9.151 9.146,-9.167 9.021,-9.167C7.948,-9.167 7.094,-8.901 6.458,-8.375C5.818,-7.844 5.38,-7.021 5.146,-5.896L3.979,0L0.438,0L2.854,-12.208L6.208,-12.208L5.917,-10.75Z" style="fill:rgb(34,72,40);fill-rule:nonzero;"/>
                </g>
            </g>
        </g>
        <g transform="matrix(1,0,0,1,681.896,473.124)">
            <g>
                <g>
                    <path d="M2.854,-12.208L6.375,-12.208L3.938,0L0.438,0L2.854,-12.208ZM5.208,-13.917C4.609,-13.917 4.115,-14.089 3.729,-14.437C3.339,-14.797 3.146,-15.234 3.146,-15.75C3.146,-16.344 3.359,-16.844 3.792,-17.25C4.219,-17.651 4.781,-17.854 5.479,-17.854C6.104,-17.854 6.609,-17.677 7,-17.333C7.385,-17 7.583,-16.583 7.583,-16.083C7.583,-15.427 7.359,-14.901 6.917,-14.5C6.484,-14.109 5.917,-13.917 5.208,-13.917Z" style="fill:rgb(34,72,40);fill-rule:nonzero;"/>
                </g>
            </g>
        </g>
        <g transform="matrix(1,0,0,1,692.078,473.124)">
            <g>
                <g>
                    <path d="M9.958,-12.396C11.318,-12.396 12.401,-12.031 13.208,-11.312C14.01,-10.589 14.417,-9.562 14.417,-8.229C14.417,-7.729 14.359,-7.24 14.25,-6.771L12.896,0L9.354,0L10.667,-6.542C10.719,-6.792 10.75,-7.068 10.75,-7.375C10.75,-8.01 10.573,-8.5 10.229,-8.833C9.88,-9.167 9.359,-9.333 8.667,-9.333C7.76,-9.333 7.01,-9.068 6.417,-8.542C5.818,-8.01 5.406,-7.229 5.188,-6.187L3.979,0L0.438,0L2.854,-12.208L6.208,-12.208L5.938,-10.896C7.031,-11.896 8.375,-12.396 9.958,-12.396Z" style="fill:rgb(34,72,40);fill-rule:nonzero;"/>
                </g>
            </g>
        </g>
        <g transform="matrix(1,0,0,1,711.127,473.124)">
            <g>
                <g>
                    <path d="M15.458,-12.208L13.438,-2.042C12.979,0.26 12.104,1.943 10.813,3C9.521,4.052 7.792,4.583 5.625,4.583C4.443,4.583 3.354,4.443 2.354,4.167C1.365,3.901 0.521,3.505 -0.188,2.979L1.5,0.417C1.984,0.818 2.609,1.135 3.375,1.375C4.135,1.609 4.943,1.729 5.792,1.729C6.984,1.729 7.885,1.464 8.5,0.938C9.125,0.422 9.547,-0.365 9.771,-1.437L9.875,-1.958C8.885,-1.042 7.646,-0.583 6.146,-0.583C5.13,-0.583 4.214,-0.792 3.396,-1.208C2.589,-1.625 1.943,-2.214 1.458,-2.979C0.984,-3.755 0.75,-4.667 0.75,-5.708C0.75,-6.958 1.042,-8.089 1.625,-9.104C2.219,-10.115 3.031,-10.917 4.063,-11.5C5.104,-12.094 6.271,-12.396 7.563,-12.396C8.505,-12.396 9.339,-12.214 10.063,-11.854C10.781,-11.49 11.323,-10.943 11.688,-10.208L12.063,-12.208L15.458,-12.208ZM7.104,-3.5C8.13,-3.5 8.979,-3.833 9.646,-4.5C10.313,-5.167 10.646,-6.021 10.646,-7.062C10.646,-7.797 10.401,-8.38 9.917,-8.812C9.427,-9.24 8.755,-9.458 7.896,-9.458C6.854,-9.458 5.99,-9.125 5.313,-8.458C4.646,-7.792 4.313,-6.937 4.313,-5.896C4.313,-5.156 4.563,-4.573 5.063,-4.146C5.563,-3.714 6.24,-3.5 7.104,-3.5Z" style="fill:rgb(34,72,40);fill-rule:nonzero;"/>
                </g>
            </g>
        </g>
        <g>
            <clipPath id="_clip2">
                <rect x="25.656" y="286.047" width="215.089" height="227.906"/>
            </clipPath>
            <g clip-path="url(#_clip2)">
                <path d="M25.656,328.855C25.656,317.502 30.166,306.613 38.195,298.585C46.223,290.557 57.111,286.047 68.465,286.047L240.745,286.047L240.745,513.74L68.465,513.74C57.111,513.74 46.223,509.229 38.195,501.201C30.166,493.173 25.656,482.285 25.656,470.931L25.656,328.855Z" style="fill:rgb(34,72,40);fill-rule:nonzero;"/>
            </g>
        </g>
        <g transform="matrix(1,0,0,1,62.7189,472.913)">
            <g>
                <g>
                    <path d="M6.792,0.188C5.552,0.188 4.469,-0.031 3.542,-0.479C2.609,-0.937 1.896,-1.568 1.396,-2.375C0.896,-3.193 0.646,-4.146 0.646,-5.229C0.646,-6.547 0.958,-7.734 1.583,-8.792C2.219,-9.859 3.094,-10.698 4.208,-11.312C5.333,-11.922 6.594,-12.229 8,-12.229C9.292,-12.229 10.401,-11.964 11.333,-11.437C12.26,-10.906 12.964,-10.156 13.438,-9.187L10.458,-7.708C9.943,-8.802 9.047,-9.354 7.771,-9.354C7.089,-9.354 6.469,-9.177 5.917,-8.833C5.375,-8.5 4.948,-8.031 4.646,-7.437C4.339,-6.839 4.188,-6.156 4.188,-5.396C4.188,-4.573 4.427,-3.922 4.917,-3.437C5.417,-2.948 6.109,-2.708 7,-2.708C8.276,-2.708 9.26,-3.25 9.958,-4.333L12.521,-2.708C11.948,-1.802 11.156,-1.094 10.146,-0.583C9.13,-0.068 8.01,0.188 6.792,0.188Z" style="fill:white;fill-rule:nonzero;"/>
                </g>
            </g>
        </g>
        <g transform="matrix(1,0,0,1,76.8432,472.913)">
            <g>
                <g>
                    <path d="M15.063,-12.062L12.667,0L9.354,0L9.563,-1.187C8.563,-0.271 7.333,0.188 5.875,0.188C4.927,0.188 4.063,-0.026 3.271,-0.458C2.479,-0.901 1.844,-1.526 1.375,-2.333C0.901,-3.151 0.667,-4.115 0.667,-5.229C0.667,-6.547 0.958,-7.74 1.542,-8.812C2.135,-9.88 2.943,-10.714 3.958,-11.312C4.984,-11.922 6.109,-12.229 7.333,-12.229C9.177,-12.229 10.484,-11.625 11.25,-10.417L11.563,-12.062L15.063,-12.062ZM6.958,-2.708C7.635,-2.708 8.25,-2.875 8.792,-3.208C9.333,-3.552 9.75,-4.026 10.042,-4.625C10.344,-5.219 10.5,-5.906 10.5,-6.687C10.5,-7.505 10.255,-8.151 9.771,-8.625C9.281,-9.109 8.604,-9.354 7.729,-9.354C7.047,-9.354 6.438,-9.177 5.896,-8.833C5.354,-8.5 4.927,-8.031 4.625,-7.437C4.333,-6.839 4.188,-6.151 4.188,-5.375C4.188,-4.552 4.427,-3.901 4.917,-3.417C5.401,-2.943 6.083,-2.708 6.958,-2.708Z" style="fill:white;fill-rule:nonzero;"/>
                </g>
            </g>
        </g>
        <g transform="matrix(1,0,0,1,93.187,472.913)">
            <g>
                <g>
                    <path d="M5.854,-10.625C6.365,-11.193 6.99,-11.604 7.729,-11.854C8.479,-12.104 9.354,-12.229 10.354,-12.229L9.729,-9.021C9.313,-9.047 9.042,-9.062 8.917,-9.062C7.859,-9.062 7.01,-8.797 6.375,-8.271C5.734,-7.74 5.302,-6.927 5.083,-5.833L3.917,0L0.417,0L2.833,-12.062L6.146,-12.062L5.854,-10.625Z" style="fill:white;fill-rule:nonzero;"/>
                </g>
            </g>
        </g>
        <g transform="matrix(1,0,0,1,103.724,472.913)">
            <g>
                <g>
                    <path d="M9.604,-12.229C10.531,-12.229 11.396,-12.01 12.188,-11.583C12.99,-11.151 13.63,-10.526 14.104,-9.708C14.573,-8.901 14.813,-7.943 14.813,-6.833C14.813,-5.5 14.51,-4.297 13.917,-3.229C13.333,-2.172 12.531,-1.339 11.521,-0.729C10.505,-0.115 9.38,0.188 8.146,0.188C7.198,0.188 6.38,0.021 5.688,-0.312C5.005,-0.646 4.479,-1.135 4.104,-1.792L3.75,0L0.417,0L3.75,-16.625L7.25,-16.625L6.125,-11.021C7.094,-11.823 8.255,-12.229 9.604,-12.229ZM7.729,-2.708C8.422,-2.708 9.031,-2.875 9.563,-3.208C10.104,-3.552 10.521,-4.026 10.813,-4.625C11.115,-5.219 11.271,-5.906 11.271,-6.687C11.271,-7.505 11.026,-8.151 10.542,-8.625C10.052,-9.109 9.38,-9.354 8.521,-9.354C7.839,-9.354 7.229,-9.177 6.688,-8.833C6.156,-8.5 5.74,-8.031 5.438,-7.437C5.146,-6.839 5,-6.151 5,-5.375C5,-4.552 5.234,-3.901 5.708,-3.417C6.193,-2.943 6.865,-2.708 7.729,-2.708Z" style="fill:white;fill-rule:nonzero;"/>
                </g>
            </g>
        </g>
        <g transform="matrix(1,0,0,1,120.068,472.913)">
            <g>
                <g>
                    <path d="M13.521,-6.917C13.521,-6.375 13.448,-5.76 13.313,-5.083L4.083,-5.083C4.193,-3.443 5.229,-2.625 7.188,-2.625C7.813,-2.625 8.401,-2.719 8.958,-2.917C9.51,-3.109 10,-3.385 10.417,-3.75L11.875,-1.437C11.208,-0.896 10.438,-0.484 9.563,-0.208C8.698,0.052 7.792,0.188 6.833,0.188C5.594,0.188 4.505,-0.031 3.563,-0.479C2.63,-0.922 1.917,-1.552 1.417,-2.375C0.917,-3.193 0.667,-4.146 0.667,-5.229C0.667,-6.547 0.964,-7.74 1.563,-8.812C2.172,-9.88 3.01,-10.714 4.083,-11.312C5.167,-11.922 6.396,-12.229 7.771,-12.229C8.938,-12.229 9.948,-12.01 10.813,-11.583C11.672,-11.151 12.339,-10.531 12.813,-9.729C13.281,-8.922 13.521,-7.984 13.521,-6.917ZM7.625,-9.625C6.802,-9.625 6.109,-9.401 5.542,-8.958C4.969,-8.51 4.568,-7.901 4.333,-7.125L10.313,-7.125C10.313,-7.901 10.068,-8.51 9.583,-8.958C9.094,-9.401 8.443,-9.625 7.625,-9.625Z" style="fill:white;fill-rule:nonzero;"/>
                </g>
            </g>
        </g>
        <g transform="matrix(1,0,0,1,135.022,472.913)">
            <g>
                <g>
                    <path d="M3.75,-16.625L7.25,-16.625L3.917,0L0.417,0L3.75,-16.625Z" style="fill:white;fill-rule:nonzero;"/>
                </g>
            </g>
        </g>
        <g transform="matrix(1,0,0,1,142.644,472.913)">
            <g>
                <g>
                    <path d="M2.833,-12.062L6.292,-12.062L3.896,0L0.417,0L2.833,-12.062ZM5.146,-13.75C4.547,-13.75 4.052,-13.922 3.667,-14.271C3.292,-14.615 3.104,-15.047 3.104,-15.562C3.104,-16.156 3.318,-16.651 3.75,-17.042C4.177,-17.443 4.734,-17.646 5.417,-17.646C6.026,-17.646 6.521,-17.469 6.896,-17.125C7.281,-16.792 7.479,-16.38 7.479,-15.896C7.479,-15.255 7.26,-14.734 6.833,-14.333C6.401,-13.943 5.839,-13.75 5.146,-13.75Z" style="fill:white;fill-rule:nonzero;"/>
                </g>
            </g>
        </g>
        <g transform="matrix(1,0,0,1,150.244,472.913)">
            <g>
                <g>
                    <path d="M17.958,-12.229C19.276,-12.229 20.318,-11.875 21.083,-11.167C21.859,-10.458 22.25,-9.458 22.25,-8.167C22.25,-7.677 22.198,-7.187 22.104,-6.687L20.771,0L17.292,0L18.563,-6.437C18.615,-6.729 18.646,-7.031 18.646,-7.354C18.646,-7.964 18.484,-8.422 18.167,-8.729C17.844,-9.047 17.375,-9.208 16.75,-9.208C15.052,-9.208 14,-8.198 13.583,-6.187L12.354,0L8.854,0L10.125,-6.437C10.193,-6.729 10.229,-7.026 10.229,-7.333C10.229,-7.943 10.063,-8.406 9.729,-8.729C9.406,-9.047 8.938,-9.208 8.313,-9.208C6.63,-9.208 5.568,-8.187 5.125,-6.146L3.917,0L0.417,0L2.833,-12.062L6.146,-12.062L5.875,-10.812C6.917,-11.755 8.177,-12.229 9.667,-12.229C10.5,-12.229 11.24,-12.062 11.896,-11.729C12.547,-11.396 13.031,-10.906 13.354,-10.271C13.938,-10.906 14.615,-11.396 15.396,-11.729C16.172,-12.062 17.026,-12.229 17.958,-12.229Z" style="fill:white;fill-rule:nonzero;"/>
                </g>
            </g>
        </g>
        <g transform="matrix(1,0,0,1,174.637,472.913)">
            <g>
                <g>
                    <path d="M2.021,0.188C1.422,0.188 0.927,0 0.542,-0.375C0.151,-0.76 -0.042,-1.25 -0.042,-1.833C-0.042,-2.526 0.177,-3.089 0.625,-3.521C1.068,-3.948 1.625,-4.167 2.292,-4.167C2.885,-4.167 3.375,-3.979 3.75,-3.604C4.135,-3.229 4.333,-2.74 4.333,-2.146C4.333,-1.479 4.104,-0.922 3.646,-0.479C3.188,-0.031 2.646,0.188 2.021,0.188Z" style="fill:white;fill-rule:nonzero;"/>
                </g>
            </g>
        </g>
        <g transform="matrix(1,0,0,1,181.385,472.913)">
            <g>
                <g>
                    <path d="M2.833,-12.062L6.292,-12.062L3.896,0L0.417,0L2.833,-12.062ZM5.146,-13.75C4.547,-13.75 4.052,-13.922 3.667,-14.271C3.292,-14.615 3.104,-15.047 3.104,-15.562C3.104,-16.156 3.318,-16.651 3.75,-17.042C4.177,-17.443 4.734,-17.646 5.417,-17.646C6.026,-17.646 6.521,-17.469 6.896,-17.125C7.281,-16.792 7.479,-16.38 7.479,-15.896C7.479,-15.255 7.26,-14.734 6.833,-14.333C6.401,-13.943 5.839,-13.75 5.146,-13.75Z" style="fill:white;fill-rule:nonzero;"/>
                </g>
            </g>
        </g>
        <g transform="matrix(1,0,0,1,188.985,472.913)">
            <g>
                <g>
                    <path d="M6.729,0.188C5.521,0.188 4.448,-0.031 3.521,-0.479C2.604,-0.937 1.896,-1.568 1.396,-2.375C0.896,-3.193 0.646,-4.146 0.646,-5.229C0.646,-6.547 0.958,-7.734 1.583,-8.792C2.219,-9.859 3.089,-10.698 4.188,-11.312C5.297,-11.922 6.547,-12.229 7.938,-12.229C9.156,-12.229 10.219,-12.005 11.125,-11.562C12.042,-11.115 12.75,-10.484 13.25,-9.667C13.76,-8.859 14.021,-7.917 14.021,-6.833C14.021,-5.5 13.708,-4.302 13.083,-3.25C12.458,-2.193 11.589,-1.354 10.479,-0.729C9.365,-0.115 8.115,0.188 6.729,0.188ZM6.958,-2.708C7.625,-2.708 8.219,-2.875 8.75,-3.208C9.292,-3.552 9.708,-4.026 10,-4.625C10.302,-5.219 10.458,-5.906 10.458,-6.687C10.458,-7.505 10.219,-8.151 9.75,-8.625C9.276,-9.109 8.604,-9.354 7.729,-9.354C7.047,-9.354 6.438,-9.177 5.896,-8.833C5.354,-8.5 4.927,-8.031 4.625,-7.437C4.333,-6.839 4.188,-6.151 4.188,-5.375C4.188,-4.552 4.427,-3.901 4.917,-3.417C5.401,-2.943 6.083,-2.708 6.958,-2.708Z" style="fill:white;fill-rule:nonzero;"/>
                </g>
            </g>
        </g>
        <g>
            <g>
                <clipPath id="_clip3">
                    <path d="M94.708,368.156L101.203,363.885L115.839,386.146L109.349,390.417L94.708,368.156Z"/>
                </clipPath>
                <g clip-path="url(#_clip3)">
                    <g>
                        <clipPath id="_clip4">
                            <path d="M94.708,368.156L101.203,363.885L115.839,386.146L109.349,390.417L94.708,368.156Z"/>
                        </clipPath>
                        <g clip-path="url(#_clip4)">
                            <path d="M94.844,368.286L101.245,364.078L115.755,386.146L109.354,390.359L94.844,368.286" style="fill:white;"/>
                        </g>
                    </g>
                </g>
            </g>
        </g>
        <g>
            <g>
                <clipPath id="_clip5">
                    <path d="M94.708,368.156L101.203,363.885L115.839,386.146L109.349,390.417L94.708,368.156Z"/>
                </clipPath>
                <g clip-path="url(#_clip5)">
                    <g>
                        <clipPath id="_clip6">
                            <path d="M94.708,368.156L101.203,363.885L115.839,386.146L109.349,390.417L94.708,368.156Z"/>
                        </clipPath>
                        <g clip-path="url(#_clip6)">
                            <g transform="matrix(0.00961817,-0.00632461,-0.00632461,-0.00961817,109.331,390.476)">
                                <path d="M7.536,2302.05L673.014,2301.99L672.97,7.645L7.243,7.325L7.536,2302.05Z" style="fill:none;fill-rule:nonzero;stroke:black;stroke-width:6.4px;stroke-linejoin:miter;stroke-miterlimit:2.613;"/>
                            </g>
                        </g>
                    </g>
                </g>
            </g>
        </g>
        <g>
            <g>
                <clipPath id="_clip7">
                    <path d="M114.302,431.266L107.38,427.729L119.495,404.005L126.417,407.536L114.302,431.266Z"/>
                </clipPath>
                <g clip-path="url(#_clip7)">
                    <g>
                        <clipPath id="_clip8">
                            <path d="M114.302,431.266L107.38,427.729L119.495,404.005L126.417,407.536L114.302,431.266Z"/>
                        </clipPath>
                        <g clip-path="url(#_clip8)">
                            <path d="M114.349,431.083L107.526,427.599L119.536,404.078L126.359,407.563L114.349,431.083" style="fill:white;"/>
                            <g transform="matrix(-0.0102518,-0.00523541,-0.00523541,0.0102518,126.476,407.524)">
                                <path d="M7.359,2301.86L672.891,2301.86L672.984,7.603L7.451,7.607L7.359,2301.86Z" style="fill:none;fill-rule:nonzero;stroke:black;stroke-width:6.4px;stroke-linejoin:miter;stroke-miterlimit:2.613;"/>
                            </g>
                        </g>
                    </g>
                </g>
            </g>
        </g>
        <g>
            <g>
                <clipPath id="_clip9">
                    <path d="M105.302,348.328L111.792,344.057L126.432,366.318L119.938,370.589L105.302,348.328Z"/>
                </clipPath>
                <g clip-path="url(#_clip9)">
                    <g>
                        <clipPath id="_clip10">
                            <path d="M105.302,348.328L111.792,344.057L126.432,366.318L119.938,370.589L105.302,348.328Z"/>
                        </clipPath>
                        <g clip-path="url(#_clip10)">
                            <path d="M105.438,348.458L111.839,344.25L126.349,366.318L119.948,370.526L105.438,348.458" style="fill:white;"/>
                        </g>
                    </g>
                </g>
            </g>
        </g>
        <g>
            <g>
                <clipPath id="_clip11">
                    <path d="M105.302,348.328L111.792,344.057L126.432,366.318L119.938,370.589L105.302,348.328Z"/>
                </clipPath>
                <g clip-path="url(#_clip11)">
                    <g>
                        <clipPath id="_clip12">
                            <path d="M105.302,348.328L111.792,344.057L126.432,366.318L119.938,370.589L105.302,348.328Z"/>
                        </clipPath>
                        <g clip-path="url(#_clip12)">
                            <g transform="matrix(0.00961817,-0.00632461,-0.00632461,-0.00961817,119.923,370.646)">
                                <path d="M7.604,2301.88L673.081,2301.82L673.037,7.475L7.56,7.532L7.604,2301.88Z" style="fill:none;fill-rule:nonzero;stroke:black;stroke-width:6.4px;stroke-linejoin:miter;stroke-miterlimit:2.613;"/>
                            </g>
                        </g>
                    </g>
                </g>
            </g>
        </g>
        <g>
            <clipPath id="_clip13">
                <rect x="82.667" y="341.167" width="100.844" height="92.13"/>
            </clipPath>
            <g clip-path="url(#_clip13)">
                <path d="M159.917,425.891L143.792,425.891L152.172,410.62C152.328,410.448 152.469,410.266 152.589,410.063L157.021,402.63L173.771,402.63L159.917,425.891ZM103.068,408.094L111.458,394.063L120.984,410.063C121.635,411.151 122.833,411.823 124.13,411.823L143.292,411.823L135.573,425.891L113.661,425.891L103.068,408.094ZM113.661,348.198L135.693,348.198L143.406,362.266L124.13,362.266C122.833,362.266 121.635,362.938 120.984,364.026L111.422,380.089L98.88,401.063L90.531,387.047L113.661,348.198ZM173.766,371.458L157.016,371.458L152.625,364.078L143.911,348.198L159.917,348.198L173.766,371.458ZM183.198,397.354C182.547,396.266 181.349,395.594 180.052,395.594L154.922,395.594C153.625,395.594 152.427,396.266 151.781,397.354L147.349,404.792L126.224,404.792L115.661,387.047L117.729,383.573L117.74,383.557L126.229,369.297L147.349,369.297L151.776,376.734C152.422,377.823 153.625,378.495 154.922,378.495L180.052,378.495C181.344,378.495 182.542,377.823 183.193,376.734C183.844,375.646 183.844,374.307 183.193,373.219L165.156,342.922C164.505,341.833 163.307,341.161 162.01,341.161L111.568,341.161C110.271,341.161 109.068,341.833 108.422,342.922L83.198,385.286C82.552,386.375 82.552,387.714 83.198,388.802L108.422,431.167C109.068,432.255 110.271,432.927 111.568,432.927L162.01,432.927C163.307,432.927 164.505,432.255 165.156,431.167L183.198,400.87C183.844,399.781 183.844,398.438 183.198,397.354" style="fill:white;fill-rule:nonzero;"/>
            </g>
        </g>
    </g>
</svg>
